<svg width="20" height="20" viewBox="0 0 20 20" fill="none" xmlns="http://www.w3.org/2000/svg">
<path d="M20 8.02706V11.9839C19.9861 12.2772 19.7442 12.5097 19.4467 12.5097C19.4467 12.5097 13.0373 12.5082 13.0278 12.5097C12.8846 12.5155 12.7566 12.5762 12.6624 12.6698C12.5622 12.7715 12.5008 12.9104 12.5008 13.0633V19.4757C12.4869 19.7594 12.2604 19.9861 11.9768 20H10.5544C9.72262 19.9722 8.97051 19.6241 8.42159 19.0735C7.87121 18.525 7.5233 17.774 7.49552 16.9419C7.49552 16.9419 7.49845 13.0157 7.49552 12.9938C7.48017 12.8673 7.4217 12.7532 7.33691 12.6684C7.2492 12.5806 7.13226 12.5221 7.00289 12.5097C6.98461 12.5082 0.522604 12.5097 0.522604 12.5097C0.379344 12.5038 0.251434 12.4431 0.157147 12.3495C0.0723605 12.2633 0.0153492 12.1492 0 12.0241V8.06728C0 7.91298 0.0613967 7.77404 0.161532 7.67386C0.263129 7.57367 0.402003 7.51225 0.554764 7.51225C0.554764 7.51225 6.98315 7.51371 7.00143 7.51225C7.26163 7.48592 7.46994 7.27825 7.49625 7.01718C7.49772 6.9989 7.49625 0.560878 7.49625 0.555027C7.49625 0.402194 7.55765 0.263985 7.65779 0.161609C7.75792 0.0614259 7.89679 0 8.05102 0H9.50554C10.3081 0.044607 11.0295 0.3883 11.5638 0.923583C12.1368 1.49689 12.4913 2.28958 12.4913 3.1649V6.8936C12.4899 6.91188 12.4884 6.93236 12.4884 6.95064C12.4884 6.96892 12.4899 6.9894 12.4913 7.00768C12.5037 7.13711 12.5622 7.25411 12.6514 7.34187C12.7391 7.43108 12.856 7.48958 12.9854 7.50201C13.0037 7.50347 13.0242 7.50494 13.0424 7.50494C13.0607 7.50494 13.0812 7.50347 13.0994 7.50201H19.503C19.6338 7.51444 19.7508 7.57294 19.8392 7.66216C19.9335 7.75722 19.9934 7.88519 20 8.02706Z" fill="#4338CA"/>
</svg>
